<svg data-v-fde0c5aa="" xmlns="http://www.w3.org/2000/svg" viewBox="0 0 300 300" class="iconAbove"><!----><defs data-v-fde0c5aa=""><!----></defs><rect data-v-fde0c5aa="" fill="#F3EEA8" x="0" y="0" width="300px" height="300px" class="logo-background-square"></rect><defs data-v-fde0c5aa=""><!----></defs><g data-v-fde0c5aa="" id="6d21ea67-3d28-414f-9213-3ca1b10c2c41" fill="#ffffff" transform="matrix(3.1738281959405885,0,0,3.1738281959405885,15.874023496617156,170.87011748308578)"><path d="M1.30 13.78L3.49 13.78C6.27 13.78 7.64 11.97 7.64 9.11C7.64 6.27 6.27 4.54 3.44 4.54L1.30 4.54ZM2.11 13.09L2.11 5.22L3.39 5.22C5.73 5.22 6.79 6.75 6.79 9.11C6.79 11.49 5.73 13.09 3.39 13.09ZM13.02 13.96C14.18 13.96 14.97 13.54 15.60 13.12L15.29 12.53C14.64 12.98 13.97 13.26 13.10 13.26C11.45 13.26 10.30 12.07 10.29 10.36L15.85 10.36C15.88 10.18 15.88 9.98 15.88 9.79C15.88 7.74 14.71 6.47 12.84 6.47C11.10 6.47 9.44 7.91 9.44 10.22C9.44 12.56 11.06 13.96 13.02 13.96ZM10.28 9.73C10.46 8.12 11.61 7.13 12.84 7.13C14.22 7.13 15.11 8.04 15.11 9.73ZM20.58 13.78L21.46 13.78L24.39 6.64L23.60 6.64L21.85 10.99C21.56 11.70 21.31 12.42 21.07 13.03L21.01 13.03C20.76 12.42 20.48 11.70 20.19 10.99L18.44 6.64L17.63 6.64ZM26.50 13.78L28.69 13.78C31.47 13.78 32.84 11.97 32.84 9.11C32.84 6.27 31.47 4.54 28.64 4.54L26.50 4.54ZM27.31 13.09L27.31 5.22L28.59 5.22C30.93 5.22 31.99 6.75 31.99 9.11C31.99 11.49 30.93 13.09 28.59 13.09ZM38.19 4.76C38.64 4.76 39.02 4.41 39.02 3.95C39.02 3.44 38.64 3.11 38.19 3.11C37.74 3.11 37.37 3.44 37.37 3.95C37.37 4.41 37.74 4.76 38.19 4.76ZM35.21 13.78L41.51 13.78L41.51 13.09L38.75 13.09L38.75 6.64L35.21 6.64L35.21 7.32L37.95 7.32L37.95 13.09L35.21 13.09ZM46.41 13.96C48.26 13.96 49.29 13.01 49.29 11.89C49.29 10.88 48.52 10.30 46.52 9.77C45.19 9.42 44.34 9.02 44.34 8.37C44.34 7.73 44.77 7.13 46.20 7.13C47.08 7.13 47.82 7.45 48.41 7.91L48.85 7.34C48.19 6.86 47.15 6.47 46.21 6.47C44.38 6.47 43.48 7.35 43.48 8.41C43.48 9.35 44.65 10.02 46.12 10.40C47.99 10.88 48.45 11.34 48.45 11.94C48.45 12.68 47.78 13.29 46.45 13.29C45.12 13.29 44.27 12.89 43.53 12.28L43.11 12.84C43.92 13.44 45.05 13.96 46.41 13.96ZM51.81 16.65L52.63 16.65L52.63 14.39L52.61 12.96C53.27 13.58 54.14 13.96 54.77 13.96C56.43 13.96 57.89 12.53 57.89 10.11C57.89 7.88 56.94 6.47 55.06 6.47C54.19 6.47 53.27 6.96 52.61 7.63L52.57 7.63L52.49 6.64L51.81 6.64ZM54.67 13.26C54.17 13.26 53.35 12.96 52.63 12.25L52.63 8.41C53.42 7.57 54.24 7.17 54.89 7.17C56.43 7.17 57.05 8.40 57.05 10.11C57.05 11.98 56.06 13.26 54.67 13.26ZM64.54 13.96C65.24 13.96 65.70 13.75 66.28 13.51L66.05 12.88C65.52 13.15 65.11 13.27 64.69 13.27C63.78 13.27 63.28 12.75 63.28 11.63L63.28 3.57L60.03 3.57L60.03 4.26L62.47 4.26L62.47 11.56C62.47 13.19 63.21 13.96 64.54 13.96ZM70.76 13.96C71.75 13.96 72.76 13.37 73.53 12.73L73.57 12.73L73.64 13.78L74.31 13.78L74.31 9.27C74.31 7.67 73.51 6.47 71.69 6.47C70.50 6.47 69.52 7.08 69.03 7.50L69.37 8.11C69.86 7.67 70.62 7.17 71.57 7.17C73.02 7.17 73.49 8.19 73.50 9.28C69.90 9.62 68.45 10.37 68.45 12.00C68.45 13.30 69.54 13.96 70.76 13.96ZM70.94 13.29C70.08 13.29 69.24 12.89 69.24 11.94C69.24 10.85 70.27 10.18 73.50 9.87L73.50 12.05C72.62 12.87 71.76 13.29 70.94 13.29ZM77.38 16.81C78.83 16.81 79.66 15.68 80.15 14.46L83.22 6.64L82.43 6.64L80.78 10.99C80.54 11.61 80.28 12.35 80.01 13.02L79.95 13.02L79.07 10.99L77.21 6.64L76.38 6.64L79.62 13.87L79.44 14.35C78.99 15.51 78.39 16.11 77.38 16.11C77.15 16.11 76.92 16.07 76.73 16.02L76.54 16.67C76.76 16.76 77.08 16.81 77.38 16.81Z"></path></g><defs data-v-fde0c5aa=""><!----></defs><g data-v-fde0c5aa="" id="c0a95530-8eb3-4e2a-90eb-c2ee570188e9" stroke="none" fill="#933547" transform="matrix(0.8890729065737676,0,0,0.8890729065737676,104.81198195632722,74.88875857488665)"><g clip-rule="evenodd"><path d="M12.983 10.59l17.018 88.223-5.872-59.049 29.021-1.892-.054-9.883L64.549 1 53.622 18.977z"></path><path d="M59.389 54.548l5.16-53.541-8.74 39.716-19.612 1.045 1.57 20.462-7.766 36.583 12.057-39.899z"></path><path d="M62.8 67.182l.549-10.453-15.979 3.755-.032 11.797-17.337 26.532 21.68-27.616zM65.711 62.394l14.841-4.731 1.509-12.532-15.899 2.095zM72.07 44.502l10.988-1.417 1.581-10.278-8.079-.373L64.549 1l8.43 30.967z"></path><path d="M87.413 31.294l1.256-9.506-9.544-2.694L64.549 1l14.483 22.437-.422 7z"></path></g></g><!----></svg>