<svg width="300" height="300" xmlns="http://www.w3.org/2000/svg" class="iconAbove">
 <!---->
 <defs>
  <!---->
 </defs>
 <defs>
  <!---->
 </defs>
 <defs>
  <!---->
 </defs>
 <!---->
 <g>
  <title>Layer 1</title>
  <rect id="svg_1" class="logo-background-square" height="300px" width="300px" y="0" x="0" fill="#F3EEA8"/>
  <g transform="matrix(3.17383 0 0 3.17383 15.874 170.87)" fill="#ffffff" id="6d21ea67-3d28-414f-9213-3ca1b10c2c41">
   <path fill="#000000" id="svg_2" d="m1.3,13.78l2.19,0c2.78,0 4.15,-1.81 4.15,-4.67c0,-2.84 -1.37,-4.57 -4.2,-4.57l-2.14,0l0,9.24zm0.81,-0.69l0,-7.87l1.28,0c2.34,0 3.4,1.53 3.4,3.89c0,2.38 -1.06,3.98 -3.4,3.98l-1.28,0zm10.91,0.87c1.16,0 1.95,-0.42 2.58,-0.84l-0.31,-0.59c-0.65,0.45 -1.32,0.73 -2.19,0.73c-1.65,0 -2.8,-1.19 -2.81,-2.9l5.56,0c0.03,-0.18 0.03,-0.38 0.03,-0.57c0,-2.05 -1.17,-3.32 -3.04,-3.32c-1.74,0 -3.4,1.44 -3.4,3.75c0,2.34 1.62,3.74 3.58,3.74zm-2.74,-4.23c0.18,-1.61 1.33,-2.6 2.56,-2.6c1.38,0 2.27,0.91 2.27,2.6l-4.83,0zm10.3,4.05l0.88,0l2.93,-7.14l-0.79,0l-1.75,4.35c-0.29,0.71 -0.54,1.43 -0.78,2.04l-0.06,0c-0.25,-0.61 -0.53,-1.33 -0.82,-2.04l-1.75,-4.35l-0.81,0l2.95,7.14zm5.92,0l2.19,0c2.78,0 4.15,-1.81 4.15,-4.67c0,-2.84 -1.37,-4.57 -4.2,-4.57l-2.14,0l0,9.24zm0.81,-0.69l0,-7.87l1.28,0c2.34,0 3.4,1.53 3.4,3.89c0,2.38 -1.06,3.98 -3.4,3.98l-1.28,0zm10.88,-8.33c0.45,0 0.83,-0.35 0.83,-0.81c0,-0.51 -0.38,-0.84 -0.83,-0.84c-0.45,0 -0.82,0.33 -0.82,0.84c0,0.46 0.37,0.81 0.82,0.81zm-2.98,9.02l6.3,0l0,-0.69l-2.76,0l0,-6.45l-3.54,0l0,0.68l2.74,0l0,5.77l-2.74,0l0,0.69zm11.2,0.18c1.85,0 2.88,-0.95 2.88,-2.07c0,-1.01 -0.77,-1.59 -2.77,-2.12c-1.33,-0.35 -2.18,-0.75 -2.18,-1.4c0,-0.64 0.43,-1.24 1.86,-1.24c0.88,0 1.62,0.32 2.21,0.78l0.44,-0.57c-0.66,-0.48 -1.7,-0.87 -2.64,-0.87c-1.83,0 -2.73,0.88 -2.73,1.94c0,0.94 1.17,1.61 2.64,1.99c1.87,0.48 2.33,0.94 2.33,1.54c0,0.74 -0.67,1.35 -2,1.35c-1.33,0 -2.18,-0.4 -2.92,-1.01l-0.42,0.56c0.81,0.6 1.94,1.12 3.3,1.12zm5.4,2.69l0.82,0l0,-2.26l-0.02,-1.43c0.66,0.62 1.53,1 2.16,1c1.66,0 3.12,-1.43 3.12,-3.85c0,-2.23 -0.95,-3.64 -2.83,-3.64c-0.87,0 -1.79,0.49 -2.45,1.16l-0.04,0l-0.08,-0.99l-0.68,0l0,10.01zm2.86,-3.39c-0.5,0 -1.32,-0.3 -2.04,-1.01l0,-3.84c0.79,-0.84 1.61,-1.24 2.26,-1.24c1.54,0 2.16,1.23 2.16,2.94c0,1.87 -0.99,3.15 -2.38,3.15zm9.87,0.7c0.7,0 1.16,-0.21 1.74,-0.45l-0.23,-0.63c-0.53,0.27 -0.94,0.39 -1.36,0.39c-0.91,0 -1.41,-0.52 -1.41,-1.64l0,-8.06l-3.25,0l0,0.69l2.44,0l0,7.3c0,1.63 0.74,2.4 2.07,2.4zm6.22,0c0.99,0 2,-0.59 2.77,-1.23l0.04,0l0.07,1.05l0.67,0l0,-4.51c0,-1.6 -0.8,-2.8 -2.62,-2.8c-1.19,0 -2.17,0.61 -2.66,1.03l0.34,0.61c0.49,-0.44 1.25,-0.94 2.2,-0.94c1.45,0 1.92,1.02 1.93,2.11c-3.6,0.34 -5.05,1.09 -5.05,2.72c0,1.3 1.09,1.96 2.31,1.96zm0.18,-0.67c-0.86,0 -1.7,-0.4 -1.7,-1.35c0,-1.09 1.03,-1.76 4.26,-2.07l0,2.18c-0.88,0.82 -1.74,1.24 -2.56,1.24zm6.44,3.52c1.45,0 2.28,-1.13 2.77,-2.35l3.07,-7.82l-0.79,0l-1.65,4.35c-0.24,0.62 -0.5,1.36 -0.77,2.03l-0.06,0l-0.88,-2.03l-1.86,-4.35l-0.83,0l3.24,7.23l-0.18,0.48c-0.45,1.16 -1.05,1.76 -2.06,1.76c-0.23,0 -0.46,-0.04 -0.65,-0.09l-0.19,0.65c0.22,0.09 0.54,0.14 0.84,0.14z"/>
  </g>
  <g transform="matrix(0.8890729065737676,0,0,0.8890729065737676,104.81198195632722,74.88875857488665)" fill="#933547" id="c0a95530-8eb3-4e2a-90eb-c2ee570188e9">
   <g id="svg_3" clip-rule="evenodd">
    <path id="svg_4" d="m12.983,10.59l17.018,88.223l-5.872,-59.049l29.021,-1.892l-0.054,-9.883l11.453,-26.989l-10.927,17.977l-40.639,-8.387z"/>
    <path id="svg_5" d="m59.389,54.548l5.16,-53.541l-8.74,39.716l-19.612,1.045l1.57,20.462l-7.766,36.583l12.057,-39.899l17.331,-4.366z"/>
    <path id="svg_6" d="m62.8,67.182l0.549,-10.453l-15.979,3.755l-0.032,11.797l-17.337,26.532l21.68,-27.616l11.119,-4.015zm2.911,-4.788l14.841,-4.731l1.509,-12.532l-15.899,2.095l-0.451,15.168zm6.359,-17.892l10.988,-1.417l1.581,-10.278l-8.079,-0.373l-12.011,-31.434l8.43,30.967l-0.909,12.535z"/>
    <path id="svg_7" d="m87.413,31.294l1.256,-9.506l-9.544,-2.694l-14.576,-18.094l14.483,22.437l-0.422,7l8.803,0.857z"/>
   </g>
  </g>
 </g>
</svg>